<?xml version="1.0" encoding="UTF-8" standalone="no"?>
<!DOCTYPE svg PUBLIC "-//W3C//DTD SVG 1.1//EN" "http://www.w3.org/Graphics/SVG/1.1/DTD/svg11.dtd">
<svg version="1.1" xmlns="http://www.w3.org/2000/svg" xmlns:xlink="http://www.w3.org/1999/xlink" preserveAspectRatio="xMidYMid meet" viewBox="0 0 32 32" width="32" height="32"><defs><path d="M5.25 12.41L14.86 12.41L14.86 14.64L5.25 14.64L5.25 12.41Z" id="d3Q5l6qH1p"></path><path d="M17.14 12.41L26.75 12.41L26.75 14.64L17.14 14.64L17.14 12.41Z" id="ewSIw9w2A"></path><path d="M17.97 13.52C17.97 14.76 17.03 15.76 15.88 15.76C14.73 15.76 13.8 14.76 13.8 13.52C13.8 12.29 14.73 11.29 15.88 11.29C17.03 11.29 17.97 12.29 17.97 13.52Z" id="b1kJy4w0W2"></path><path d="M17.14 15.13L14.48 11.82" id="aeNbN4sSZ"></path><path d="M10.2 25.03C9.94 22.89 11.37 19.75 14.48 15.61" id="bisOa73KL"></path><path d="M15.25 15.13C14.15 18.88 13.31 22.34 12.73 25.51L9.82 24.54" id="a1nI5k4ox"></path><path d="M21.41 25.03C21.67 22.89 20.24 19.75 17.14 15.61" id="a9PwDm2Bn"></path><path d="M16.48 15.13C17.58 18.88 18.42 22.34 19 25.51L21.91 24.54" id="amX460hZY"></path></defs><g><g><g><g><g><use xlink:href="#d3Q5l6qH1p" opacity="1" fill-opacity="0" stroke="#4a4a4a" stroke-width="1.5" stroke-opacity="1"></use></g></g><g><g><use xlink:href="#ewSIw9w2A" opacity="1" fill-opacity="0" stroke="#4a4a4a" stroke-width="1.5" stroke-opacity="1"></use></g></g><g><use xlink:href="#b1kJy4w0W2" opacity="1" fill="#dbdbdb" fill-opacity="1"></use><g><use xlink:href="#b1kJy4w0W2" opacity="1" fill-opacity="0" stroke="#4a4a4a" stroke-width="1.5" stroke-opacity="1"></use></g></g><g><g><use xlink:href="#aeNbN4sSZ" opacity="1" fill-opacity="0" stroke="#4a4a4a" stroke-width="1.5" stroke-opacity="1"></use></g></g><g><g><use xlink:href="#bisOa73KL" opacity="1" fill-opacity="0" stroke="#4a4a4a" stroke-width="1.5" stroke-opacity="1"></use></g></g><g><g><use xlink:href="#a1nI5k4ox" opacity="1" fill-opacity="0" stroke="#4a4a4a" stroke-width="1.5" stroke-opacity="1"></use></g></g><g><g><use xlink:href="#a9PwDm2Bn" opacity="1" fill-opacity="0" stroke="#4a4a4a" stroke-width="1.5" stroke-opacity="1"></use></g></g><g><g><use xlink:href="#amX460hZY" opacity="1" fill-opacity="0" stroke="#4a4a4a" stroke-width="1.5" stroke-opacity="1"></use></g></g></g></g></g></svg>