<?xml version="1.0" encoding="UTF-8" standalone="no"?>
<!DOCTYPE svg PUBLIC "-//W3C//DTD SVG 1.1//EN" "http://www.w3.org/Graphics/SVG/1.1/DTD/svg11.dtd">
<svg version="1.1" xmlns="http://www.w3.org/2000/svg" xmlns:xlink="http://www.w3.org/1999/xlink" preserveAspectRatio="xMidYMid meet" viewBox="0 0 32 32" width="32" height="32"><defs><path d="M8.27 11.55L23.86 11.55L23.86 12.83L8.27 12.83L8.27 11.55Z" id="a13UAgyVF5"></path><path d="M7.05 10.28L25.19 10.28L25.19 11.55L7.05 11.55L7.05 10.28Z" id="cNoESvq6q"></path><path d="M10.1 12.83L11.71 12.83L11.71 25.31L10.1 25.31L10.1 12.83Z" id="cTN10THeC"></path><path d="M20.87 12.83L22.47 12.83L22.47 25.31L20.87 25.31L20.87 12.83Z" id="d2JZT1xK5"></path><path d="M10.1 8.61L11.71 8.61L11.71 9.89L10.1 9.89L10.1 8.61Z" id="a1spS4vvYM"></path><path d="M20.87 8.61L22.47 8.61L22.47 9.89L20.87 9.89L20.87 8.61Z" id="dQbfN4ip"></path><path d="" id="c1l7Q8rTDZ"></path><path d="M7.62 7.29L24.52 7.29L23.86 8.61L8.27 8.61L7.62 7.29Z" id="c2m3Cdp5ZV"></path><path d="M16.12 6.05C19.13 6.05 22.69 5.73 26.82 5.08L25.67 7.29L6.61 7.29L5.18 5.08C9.47 5.73 13.12 6.05 16.12 6.05Z" id="bgrJnrLV2"></path><path d="M9.78 25.22L12.16 25.22L12.16 26.83L9.78 26.83L9.78 25.22Z" id="a3oGGwlXAN"></path><path d="M20.48 25.31L22.86 25.31L22.86 26.92L20.48 26.92L20.48 25.31Z" id="bkI5m0Tkb"></path></defs><g><g><g><g><g><use xlink:href="#a13UAgyVF5" opacity="1" fill-opacity="0" stroke="#000000" stroke-width="1" stroke-opacity="1"></use></g></g><g><g><use xlink:href="#cNoESvq6q" opacity="1" fill-opacity="0" stroke="#000000" stroke-width="1" stroke-opacity="1"></use></g></g><g><g><use xlink:href="#cTN10THeC" opacity="1" fill-opacity="0" stroke="#000000" stroke-width="1" stroke-opacity="1"></use></g></g><g><g><use xlink:href="#d2JZT1xK5" opacity="1" fill-opacity="0" stroke="#000000" stroke-width="1" stroke-opacity="1"></use></g></g><g><g><use xlink:href="#a1spS4vvYM" opacity="1" fill-opacity="0" stroke="#000000" stroke-width="1" stroke-opacity="1"></use></g></g><g><g><use xlink:href="#dQbfN4ip" opacity="1" fill-opacity="0" stroke="#000000" stroke-width="1" stroke-opacity="1"></use></g></g><g><g><use xlink:href="#c1l7Q8rTDZ" opacity="1" fill-opacity="0" stroke="#000000" stroke-width="1" stroke-opacity="1"></use></g></g><g><g><use xlink:href="#c2m3Cdp5ZV" opacity="1" fill-opacity="0" stroke="#000000" stroke-width="1" stroke-opacity="1"></use></g></g><g><g><use xlink:href="#bgrJnrLV2" opacity="1" fill-opacity="0" stroke="#000000" stroke-width="1" stroke-opacity="1"></use></g></g><g><g><use xlink:href="#a3oGGwlXAN" opacity="1" fill-opacity="0" stroke="#000000" stroke-width="1" stroke-opacity="1"></use></g></g><g><g><use xlink:href="#bkI5m0Tkb" opacity="1" fill-opacity="0" stroke="#000000" stroke-width="1" stroke-opacity="1"></use></g></g></g></g></g></svg>