<?xml version="1.0" encoding="UTF-8" standalone="no"?>
<!DOCTYPE svg PUBLIC "-//W3C//DTD SVG 1.1//EN" "http://www.w3.org/Graphics/SVG/1.1/DTD/svg11.dtd">
<svg version="1.1" xmlns="http://www.w3.org/2000/svg" xmlns:xlink="http://www.w3.org/1999/xlink" preserveAspectRatio="xMidYMid meet" viewBox="0 0 32 32" width="32" height="32"><defs><path d="M5.51 12.9L5.91 12.9L12.03 12.9C12.77 13.04 13.14 12.88 13.14 12.44C13.14 12 13.43 11.3 14 10.35L5.51 10.35L5.51 12.9Z" id="d22zblQs9c"></path><path d="M26.49 10.4L26.09 10.4L19.97 10.4C19.23 10.26 18.86 10.42 18.86 10.86C18.86 11.3 18.57 12 18 12.95L26.49 12.95L26.49 10.4Z" id="bOTrkLQHC"></path><path d="M15.67 13.72C16.78 14.17 17.09 12.6 17.69 10.86C18.1 9.71 17.27 9.49 15.22 10.2C14.78 12.24 14.93 13.41 15.67 13.72Z" id="c1pHm1Bmq2"></path><path d="M15.37 10.3L15.67 11.07L16.03 11.83L16.63 12.44" id="fnb8l9j3l"></path><path d="M12.13 21.21C11.15 20.66 10.63 19.95 10.56 19.07C10.5 18.18 11.64 16.2 14 13.1L12.13 21.21Z" id="plXHFK1ok"></path><path d="M18.54 21.93C19.39 20.68 18.91 18.03 17.13 13.98" id="cXSqF0Au4"></path><path d="M21.37 19.39C21.48 18.2 20.06 16.53 17.13 14.39" id="bT5rx83an"></path><path d="M21.53 19.08L18.8 21.63" id="jhbqBpDDY"></path></defs><g><g><g><g><g><use xlink:href="#d22zblQs9c" opacity="1" fill-opacity="0" stroke="#000000" stroke-width="1" stroke-opacity="1"></use></g></g><g><g><use xlink:href="#bOTrkLQHC" opacity="1" fill-opacity="0" stroke="#000000" stroke-width="1" stroke-opacity="1"></use></g></g><g><g><use xlink:href="#c1pHm1Bmq2" opacity="1" fill-opacity="0" stroke="#000000" stroke-width="1" stroke-opacity="1"></use></g></g><g><g><use xlink:href="#fnb8l9j3l" opacity="1" fill-opacity="0" stroke="#000000" stroke-width="1" stroke-opacity="1"></use></g></g><g><g><use xlink:href="#plXHFK1ok" opacity="1" fill-opacity="0" stroke="#000000" stroke-width="1" stroke-opacity="1"></use></g></g><g><g><g><use xlink:href="#cXSqF0Au4" opacity="1" fill-opacity="0" stroke="#000000" stroke-width="1" stroke-opacity="1"></use></g></g><g><g><use xlink:href="#bT5rx83an" opacity="1" fill-opacity="0" stroke="#000000" stroke-width="1" stroke-opacity="1"></use></g></g><g><g><use xlink:href="#jhbqBpDDY" opacity="1" fill-opacity="0" stroke="#000000" stroke-width="1" stroke-opacity="1"></use></g></g></g></g></g></g></svg>